# xmcd
#
# Track frame offsets: 
#        182
#        13607
#        30565
#        44687
#        69597
#        75635
#        92907
#        106232
#        117740
#        136145
#        151715
#
# Disc length: 2117 seconds
#
# Revision: 34
# Processed by: cddbd v1.5.2PL0 Copyright (c) Steve Scherf et al.
# Submitted via: ExactAudioCopy v1.0b2
#
DISCID=8108410b,8908430b
DTITLE=Neil Young - After The Gold Rush
DYEAR=1970
DGENRE=Folk Rock, Country Rock
TTITLE0=Tell Me Why
TTITLE1=After the Gold Rush
TTITLE2=Only Love Can Break Your Heart
TTITLE3=Southern Man
TTITLE4=Till the Morning Comes
TTITLE5=Oh, Lonesome Me
TTITLE6=Don't Let It Bring You Down
TTITLE7=Birds
TTITLE8=When You Dance You Can Really Love
TTITLE9=I Believe in You
TTITLE10=Cripple Creek Ferry
EXTD=
EXTT0=
EXTT1=
EXTT2=
EXTT3=
EXTT4=
EXTT5=
EXTT6=
EXTT7=
EXTT8=
EXTT9=
EXTT10=
PLAYORDER=
